<?xml version="1.0" encoding="UTF-8"?>
<svg version="1.1" xmlns="http://www.w3.org/2000/svg" width="977" height="255">
<path d="M0 0 C0.86124481 -0.00887741 1.72248962 -0.01775482 2.60983276 -0.02690125 C3.99430099 -0.02095695 3.99430099 -0.02095695 5.40673828 -0.01489258 C6.36347443 -0.0112117 7.32021057 -0.00753082 8.30593872 -0.0037384 C10.32836512 0.01114889 12.35075245 0.03257391 14.37304688 0.06005859 C16.43870235 0.08036746 18.50464526 0.08108694 20.5703125 0.06201172 C23.5594319 0.03457766 26.54292029 0.06582038 29.53173828 0.11010742 C30.45066864 0.09180374 31.369599 0.07350006 32.31637573 0.05464172 C36.21857597 0.17067267 38.63796555 0.28548414 41.43452454 3.16473389 C42.98845226 5.47429392 44.31551874 7.81112438 45.60205078 10.27807617 C46.23296631 11.25212402 46.86388184 12.22617187 47.51391602 13.22973633 C48.05733643 14.0835791 48.60075684 14.93742187 49.16064453 15.81713867 C50.0989209 17.28836182 50.0989209 17.28836182 51.05615234 18.78930664 C51.71067383 19.81685059 52.36519531 20.84439453 53.03955078 21.90307617 C59.04862271 31.31821833 65.12041382 40.69008302 71.23876953 50.03466797 C75.06633488 55.8915899 78.82768155 61.78479192 82.53955078 67.71557617 C89.64692687 79.06544461 97.1316417 90.16520064 104.60205078 101.27807617 C105.4969032 98.5935189 105.7333768 97.03331224 105.75354004 94.2795105 C105.7618837 93.46907288 105.77022736 92.65863525 105.77882385 91.82363892 C105.78300827 90.93832489 105.78719269 90.05301086 105.79150391 89.14086914 C105.79979721 88.20569458 105.80809052 87.27052002 105.81663513 86.30700684 C105.83403794 84.27556935 105.84920413 82.24411176 105.8624115 80.21264267 C105.88341504 77.00280219 105.91043791 73.79306322 105.93908691 70.58328247 C106.00896742 62.61351549 106.06841303 54.64367671 106.12811279 46.67382812 C106.17895007 39.93771151 106.23373686 33.20165022 106.29393005 26.4656105 C106.32060002 23.29413726 106.34135425 20.12265912 106.36193848 16.95114136 C106.37853284 15.01958975 106.3954039 13.0880405 106.41259766 11.15649414 C106.41678207 10.26713165 106.42096649 9.37776917 106.42527771 8.4614563 C106.48820295 2.391924 106.48820295 2.391924 107.60205078 1.27807617 C110.62013141 1.17693918 113.61485591 1.13838709 116.63330078 1.14526367 C117.539552 1.14430695 118.44580322 1.14335022 119.3795166 1.1423645 C121.29956125 1.14168264 123.21960819 1.14353735 125.13964844 1.14770508 C128.08940782 1.15305325 131.03901492 1.1477603 133.98876953 1.14135742 C135.84944695 1.1420182 137.71012428 1.14329936 139.57080078 1.14526367 C140.45932739 1.14323944 141.347854 1.14121521 142.26330566 1.13912964 C148.4871009 1.16312629 148.4871009 1.16312629 149.60205078 2.27807617 C149.70553924 4.39743589 149.73728464 6.5203029 149.74249268 8.6421814 C149.7454638 9.31470526 149.74843492 9.98722913 149.75149608 10.68013251 C149.7602187 12.95026019 149.76169431 15.22033537 149.76318359 17.49047852 C149.76780925 19.11135471 149.77283357 20.73222982 149.77822876 22.35310364 C149.79137908 26.76839387 149.79780282 31.18366889 149.80223942 35.59897566 C149.8051659 38.35470887 149.80926988 41.11043787 149.81374359 43.86616898 C149.82742543 52.48016065 149.83708873 61.09414276 149.84094548 69.70814455 C149.84542814 79.66669358 149.86298278 89.62510548 149.89194608 99.5836128 C149.9135316 107.27109256 149.92364808 114.95853366 149.9249866 122.64604342 C149.92603688 127.2421238 149.93199174 131.8380754 149.94980621 136.43412399 C149.96623296 140.75642088 149.96846885 145.07849144 149.95966721 149.40080833 C149.95889392 150.98953671 149.96327768 152.57827698 149.97312546 154.16697502 C149.9857589 156.3315908 149.98001608 158.49539455 149.96954346 160.66000366 C149.97101002 161.8727062 149.97247658 163.08540874 149.97398758 164.33485985 C149.60205078 167.27807617 149.60205078 167.27807617 148.19918251 169.16663456 C146.17737462 170.57360769 144.93929093 170.67512832 142.48535156 170.71386719 C141.24859177 170.74257652 141.24859177 170.74257652 139.98684692 170.77186584 C138.65555252 170.77687355 138.65555252 170.77687355 137.29736328 170.78198242 C136.3812326 170.79196762 135.46510193 170.80195282 134.52120972 170.8122406 C132.58287066 170.82742915 130.64445319 170.83446616 128.70605469 170.83398438 C125.74428526 170.84053804 122.78588181 170.89498706 119.82470703 170.9519043 C117.94060391 170.96070814 116.05648486 170.96666117 114.17236328 170.96948242 C113.28888214 170.99103897 112.405401 171.01259552 111.49514771 171.0348053 C106.86943949 170.98341602 105.2137258 170.85476417 101.72949219 167.56982422 C100.67640869 165.94040894 100.67640869 165.94040894 99.60205078 164.27807617 C98.9887793 163.40183594 98.37550781 162.5255957 97.74365234 161.62280273 C97.16583008 160.73044922 96.58800781 159.8380957 95.99267578 158.91870117 C95.32905029 157.89848877 94.6654248 156.87827637 93.98168945 155.82714844 C92.92751831 154.19410767 92.92751831 154.19410767 91.85205078 152.52807617 C91.10415026 151.37539758 90.35585163 150.22297721 89.60717773 149.07080078 C88.44386618 147.2801612 87.28096198 145.48926628 86.11958313 143.69737244 C83.46893868 139.60776843 80.80434756 135.527598 78.12939453 131.45385742 C71.8737571 121.92275703 65.63794727 112.38763037 59.60205078 102.71557617 C55.10260283 95.52820819 50.44027058 88.45434707 45.69506836 81.42752075 C44.93022239 80.29437147 44.1671731 79.1600072 43.40600586 78.02438354 C42.34058214 76.43697154 41.26640837 74.85544301 40.19189453 73.27416992 C39.26171509 71.90023071 39.26171509 71.90023071 38.31274414 70.49853516 C36.62401232 68.06118202 36.62401232 68.06118202 33.60205078 66.27807617 C33.60427139 67.56624741 33.606492 68.85441864 33.60877991 70.18162537 C33.62900897 82.29270074 33.64402178 94.4037727 33.65386295 106.51486111 C33.65909238 112.74201089 33.66619111 118.9691471 33.67749023 125.19628906 C33.68831699 131.20034482 33.69432716 137.20438747 33.69692802 143.20845222 C33.69878266 145.50469227 33.70240399 147.80093156 33.70778084 150.09716606 C33.71498846 153.30128431 33.71604184 156.50534767 33.71557617 159.70947266 C33.71917145 160.66900345 33.72276672 161.62853424 33.72647095 162.61714172 C33.72509628 163.48517426 33.72372162 164.35320679 33.7223053 165.24754333 C33.72322709 166.00617896 33.72414888 166.76481459 33.72509861 167.54643917 C33.60205078 169.27807617 33.60205078 169.27807617 32.60205078 170.27807617 C29.82551279 170.40395301 27.07520752 170.46674483 24.29736328 170.48120117 C23.46244354 170.48690125 22.6275238 170.49260132 21.76730347 170.49847412 C19.99690016 170.50793876 18.22647912 170.51446389 16.45605469 170.51831055 C13.7452928 170.52801089 11.03529058 170.55901762 8.32470703 170.59057617 C6.60726363 170.59710645 4.88981479 170.60235683 3.17236328 170.60620117 C1.95348923 170.62472137 1.95348923 170.62472137 0.70999146 170.64361572 C-4.86622959 170.62151876 -4.86622959 170.62151876 -7.11371326 169.16984844 C-9.03358172 166.34174361 -8.76644809 164.04908187 -8.75871277 160.65327454 C-8.76255768 159.63875042 -8.76255768 159.63875042 -8.76648027 158.60373086 C-8.77143009 156.33258488 -8.75490628 154.06210057 -8.73852539 151.79101562 C-8.73767937 150.16497819 -8.73815376 148.5389396 -8.73985291 146.91290283 C-8.74071528 142.49369998 -8.72305045 138.07474034 -8.70213103 133.65559411 C-8.6834045 129.03914125 -8.68161697 124.4226831 -8.67805481 119.80619812 C-8.6687225 111.0620418 -8.64409269 102.31799771 -8.61400634 93.57389086 C-8.58049921 83.61997571 -8.56398561 73.66605526 -8.54892004 63.71209776 C-8.51754416 43.23402787 -8.46476063 22.75605909 -8.39794922 2.27807617 C-5.40503264 0.70226931 -3.39919719 0.02224944 0 0 Z " fill="#0E413E" transform="translate(270.39794921875,49.721923828125)"/>
<path d="M0 0 C1.0809771 -0.01226624 1.0809771 -0.01226624 2.18379211 -0.02478027 C4.58687516 -0.04972858 6.98989773 -0.06619475 9.39306641 -0.08056641 C10.21794178 -0.08589008 11.04281715 -0.09121376 11.89268875 -0.09669876 C16.27822185 -0.12350029 20.66372612 -0.14283262 25.04931641 -0.15722656 C28.64756411 -0.17044031 32.24522764 -0.19804416 35.84326172 -0.23925781 C40.20821839 -0.2892512 44.57265468 -0.313431 48.93788528 -0.32045364 C50.58572691 -0.32707252 52.23356133 -0.34204164 53.88123703 -0.36634445 C78.96937139 -0.71456825 101.69252658 7.72083562 120.24462891 24.81787109 C137.07521201 42.44332773 142.71816682 65.88365729 142.40087891 89.61474609 C141.6791699 110.5298731 133.05384327 130.50170905 118.11962891 145.19287109 C96.69742409 164.32863369 72.1922258 169.55244329 44.18994141 169.45849609 C42.73786352 169.45984845 41.28578608 169.46179369 39.83370972 169.46429443 C36.83050103 169.46720575 33.82741316 169.4630704 30.82421875 169.45361328 C26.97301494 169.44207533 23.12208558 169.44889229 19.27089119 169.46075821 C16.29069926 169.46796322 13.31057333 169.46569769 10.33037949 169.46050262 C8.9085779 169.45916977 7.48677031 169.46080109 6.06497574 169.46546173 C4.09377401 169.47051985 2.1225511 169.46144845 0.15136719 169.45166016 C-0.96841522 169.45006897 -2.08819763 169.44847778 -3.24191284 169.44683838 C-5.88037109 169.19287109 -5.88037109 169.19287109 -7.88037109 167.19287109 C-8.78194188 162.5418543 -8.99779304 158.04937116 -8.96939087 153.32156372 C-8.96686731 152.66700349 -8.96434375 152.01244325 -8.96174371 151.33804786 C-8.95209227 149.16476138 -8.93504949 146.99159917 -8.91796875 144.81835938 C-8.90945385 143.25246913 -8.90138343 141.68657642 -8.89372253 140.12068176 C-8.87160561 135.88352143 -8.84292389 131.64642923 -8.81276751 127.4093194 C-8.78204319 122.97487435 -8.75646216 118.54039907 -8.73007202 114.10592651 C-8.68495005 106.66645582 -8.63546958 99.22702342 -8.58349609 91.78759766 C-8.52340114 83.1766258 -8.47066306 74.56563192 -8.42172778 65.95458996 C-8.37446505 57.67373454 -8.3216304 49.39292336 -8.26636887 41.11211777 C-8.24295464 37.58501928 -8.22158907 34.05791704 -8.20186234 30.53079605 C-8.1784571 26.38574254 -8.15022161 22.24075005 -8.1181736 18.09575462 C-8.10718198 16.57070105 -8.09790126 15.0456341 -8.09041023 13.52055931 C-8.07995539 11.44773434 -8.06344904 9.37504651 -8.0453186 7.30227661 C-8.03756723 6.13976946 -8.02981586 4.97726231 -8.02182961 3.77952766 C-7.74287454 -1.32133869 -4.42832523 0.04352757 0 0 Z M32.11962891 36.19287109 C32.02436085 39.14533464 31.99410438 42.07435531 32.00610352 45.02709961 C32.00595749 45.95383484 32.00581146 46.88057007 32.00566101 47.83538818 C32.00636052 50.91420797 32.01415469 53.99296806 32.02197266 57.07177734 C32.0238367 59.20027127 32.02526067 61.32876562 32.02626038 63.45726013 C32.03008663 69.0714943 32.03991783 74.68570277 32.05096436 80.29992676 C32.06117617 86.02400363 32.0657575 91.74808463 32.07080078 97.47216797 C32.08154 108.71241366 32.0986177 119.95264024 32.11962891 131.19287109 C36.64623308 133.45617318 43.04349083 132.10336968 47.99462891 131.94287109 C49.26822266 131.91580078 50.54181641 131.88873047 51.85400391 131.86083984 C65.17537911 131.43858766 78.2434582 129.3409924 88.44384766 120.08349609 C98.88039444 108.89459196 101.70969166 95.79292304 101.33837891 80.69287109 C100.46588349 66.73294435 95.70079123 54.63012398 85.11962891 45.19287109 C71.82846013 35.32360448 57.73997215 35.14414057 41.80712891 35.06787109 C40.96424316 35.06311768 40.12135742 35.05836426 39.25292969 35.0534668 C35.37496881 34.68173581 35.37496881 34.68173581 32.11962891 36.19287109 Z " fill="#0E3F3C" transform="translate(822.88037109375,50.80712890625)"/>
<path d="M0 0 C0.08852282 1.64955853 0.10688869 3.3029277 0.09765625 4.95483398 C0.09440338 6.02187561 0.09115051 7.08891724 0.08779907 8.18829346 C0.07945038 9.36236755 0.07110168 10.53644165 0.0625 11.74609375 C0.05373882 14.26261347 0.04511842 16.77913368 0.03662109 19.2956543 C0.03048329 20.63870308 0.02419435 21.98175118 0.01776123 23.32479858 C-0.01371558 30.19045723 -0.0206657 37.05615211 -0.0234375 43.921875 C-0.0237434 44.6082926 -0.0240493 45.2947102 -0.02436447 46.00192833 C-0.02656338 57.84804996 0.05943327 69.69059958 0.31738281 81.53421021 C0.35544821 83.28713367 0.3903384 85.04012929 0.421875 86.79318237 C0.67549309 100.44381255 1.51369112 111.63093734 10 123 C18.31953723 130.85734072 28.65419999 132.49898214 39.66967773 132.421875 C49.2789966 132.09732962 58.18156359 128.99747632 65 122 C73.13034729 111.04485498 74.17779472 99.50951213 74.09765625 86.30517578 C74.09619598 85.38209122 74.09473572 84.45900665 74.0932312 83.50794983 C74.08944995 81.52079856 74.08335997 79.53365057 74.07516479 77.5465126 C74.06232679 74.40289891 74.0558674 71.2593277 74.05102539 68.11569214 C74.03964227 61.45210887 74.02037456 54.78856104 74 48.125 C73.97640182 40.3804945 73.95603256 32.63600861 73.94406128 24.89147568 C73.9375717 21.79205418 73.92506896 18.69269355 73.91235352 15.59329224 C73.90872257 13.70168104 73.90537065 11.81006929 73.90234375 9.91845703 C73.89717743 9.0550621 73.89201111 8.19166718 73.88668823 7.30210876 C73.88638895 3.9462887 73.93118826 1.20643522 75 -2 C79.71339913 -2.95252721 84.20500805 -3.07515341 88.98828125 -2.9140625 C89.73208542 -2.89282318 90.47588959 -2.87158386 91.24223328 -2.84970093 C92.80293303 -2.80369695 94.36354974 -2.75479258 95.92407227 -2.703125 C98.32225688 -2.62468085 100.72057461 -2.55781442 103.11914062 -2.4921875 C104.63804184 -2.44599804 106.1569231 -2.3991468 107.67578125 -2.3515625 C108.39550613 -2.33171295 109.11523102 -2.3118634 109.85676575 -2.29141235 C114.88478642 -2.11521358 114.88478642 -2.11521358 116 -1 C116.16246223 1.93861533 116.2605163 4.85552533 116.31640625 7.796875 C116.34771385 9.17691711 116.34771385 9.17691711 116.37965393 10.58483887 C116.44654521 13.63980041 116.50514866 16.69484529 116.5625 19.75 C116.58334656 20.79410034 116.60419312 21.83820068 116.62567139 22.91394043 C116.93753125 38.69218517 117.10459815 54.46874843 117.125 70.25 C117.1275882 71.16197144 117.13017639 72.07394287 117.13284302 73.0135498 C117.15411062 82.45636433 117.04347014 91.87942993 116.58984375 101.3125 C116.55581451 102.07395325 116.52178528 102.83540649 116.48672485 103.61993408 C115.49311519 121.84007727 107.56629823 138.76934294 94 151 C73.20699323 167.70740827 48.45997619 172.3313743 22.25830078 169.72753906 C6.41689505 167.65065281 -8.08475374 161.84072505 -20 151 C-20.69480469 150.37351563 -21.38960937 149.74703125 -22.10546875 149.1015625 C-36.05757886 135.85621969 -42.0432503 118.03846557 -42.61328125 99.15625 C-42.65060867 98.05841187 -42.6879361 96.96057373 -42.72639465 95.82946777 C-43.21866576 79.31228835 -43.18705825 62.78275106 -43.18530273 46.25976562 C-43.18519925 41.39774128 -43.19908565 36.53585695 -43.21607494 31.67386627 C-43.22714144 27.90278447 -43.22922395 24.13173787 -43.22869301 20.36064148 C-43.22987216 18.56482948 -43.23429034 16.76901655 -43.24202538 14.97322083 C-43.25175818 12.49050445 -43.24897918 10.00811153 -43.24291992 7.52539062 C-43.24853943 6.78796631 -43.25415894 6.05054199 -43.25994873 5.29077148 C-43.22834842 0.22834842 -43.22834842 0.22834842 -41 -2 C-38.41041251 -2.27015239 -35.92049312 -2.42179926 -33.32421875 -2.484375 C-32.18095879 -2.52053925 -32.18095879 -2.52053925 -31.01460266 -2.55743408 C-29.39992742 -2.60576795 -27.7850976 -2.64915161 -26.17016602 -2.68798828 C-23.70713877 -2.74950947 -21.24550706 -2.83264505 -18.78320312 -2.91796875 C-17.21357814 -2.96224986 -15.64391667 -3.00525966 -14.07421875 -3.046875 C-13.34071701 -3.07279724 -12.60721527 -3.09871948 -11.85148621 -3.12542725 C-7.57826254 -3.20989755 -3.20945133 -3.20945133 0 0 Z " fill="#0E403D" transform="translate(111,53)"/>
<path d="M0 0 C14.30766136 -0.04668014 28.61531094 -0.08183637 42.92303276 -0.10362434 C49.56606556 -0.11407935 56.20904735 -0.1282698 62.85205078 -0.15087891 C69.2581139 -0.17254614 75.66412784 -0.18455568 82.07022476 -0.18975449 C84.51915385 -0.19346127 86.96808012 -0.20069925 89.41698837 -0.21146011 C92.83648329 -0.22589367 96.25577269 -0.22798136 99.67529297 -0.22705078 C100.69668365 -0.23424133 101.71807434 -0.24143188 102.77041626 -0.24884033 C104.16287567 -0.24471634 104.16287567 -0.24471634 105.58346558 -0.24050903 C106.79746694 -0.24327441 106.79746694 -0.24327441 108.03599358 -0.24609566 C110 0 110 0 112 2 C112.42250211 6.39934757 112.37159402 10.81339044 112.37060547 15.23071289 C112.37497726 17.42608279 112.4112845 19.61943941 112.44921875 21.81445312 C112.45508727 23.20832645 112.45905643 24.60220934 112.4609375 25.99609375 C112.46915527 27.26638428 112.47737305 28.5366748 112.48583984 29.84545898 C112 33 112 33 110.31413269 34.67686462 C107.48228987 36.29600748 105.73877896 36.35712287 102.48803711 36.32470703 C101.38266098 36.32125275 100.27728485 36.31779846 99.13841248 36.3142395 C97.35093346 36.28630814 97.35093346 36.28630814 95.52734375 36.2578125 C93.67720421 36.24788773 93.67720421 36.24788773 91.78968811 36.23776245 C88.50741092 36.21830351 85.22557841 36.18645192 81.94348145 36.14770508 C77.3491985 36.09570382 72.7547671 36.06323901 68.16029358 36.03366089 C65.71821308 36.01686347 63.27616452 35.99387498 60.83421326 35.96365356 C59.14305138 35.94901566 59.14305138 35.94901566 57.41772461 35.93408203 C56.44161728 35.92281281 55.46550995 35.91154358 54.45982361 35.89993286 C49.62797468 36.03968256 44.81401777 36.56236202 40 37 C40 46.57 40 56.14 40 66 C46.89519531 65.96519531 46.89519531 65.96519531 53.9296875 65.9296875 C56.83724521 65.91947163 59.74478087 65.90984395 62.65234375 65.90234375 C67.27006612 65.8903758 71.88770939 65.87619915 76.50537109 65.84912109 C80.22712192 65.8274326 83.94878794 65.81543986 87.67059708 65.81024551 C89.09241191 65.80654255 90.51422197 65.79931181 91.93600082 65.78853989 C93.92327114 65.77407881 95.91062631 65.77318354 97.89794922 65.77294922 C99.03046112 65.768508 100.16297302 65.76406677 101.32980347 65.75949097 C104 66 104 66 106 68 C106.25878906 70.94921875 106.25878906 70.94921875 106.265625 74.6875 C106.26753845 75.34580811 106.2694519 76.00411621 106.27142334 76.68237305 C106.2727845 78.0743854 106.26909283 79.46641047 106.26074219 80.85839844 C106.250041 82.99182589 106.26063906 85.12441131 106.2734375 87.2578125 C106.27211589 88.60937686 106.26955347 89.9609407 106.265625 91.3125 C106.26336914 92.54613281 106.26111328 93.77976562 106.25878906 95.05078125 C106 98 106 98 104 100 C101.32980347 100.2784729 101.32980347 100.2784729 97.89794922 100.31884766 C96.61677216 100.33871735 95.33559509 100.35858704 94.01559448 100.37905884 C92.61196058 100.39093617 91.20832484 100.40259898 89.8046875 100.4140625 C88.37263869 100.43276692 86.94060098 100.45233978 85.50857544 100.4727478 C81.73735083 100.52415206 77.96609045 100.56373311 74.19470215 100.60089111 C69.6708258 100.64790819 65.14712805 100.70954136 60.62339783 100.76873779 C53.74900364 100.85705118 46.87464543 100.92674242 40 101 C39.67 111.23 39.34 121.46 39 132 C43.94613281 131.98839844 48.89226563 131.97679687 53.98828125 131.96484375 C57.11914193 131.95973507 60.24999749 131.95492115 63.38085938 131.95117188 C68.35181748 131.94519088 73.32275719 131.93811034 78.29370117 131.92456055 C82.30073943 131.91370634 86.30775797 131.90771777 90.3148098 131.90512276 C91.84464008 131.90327309 93.37446926 131.89966123 94.90429115 131.89426994 C97.04469777 131.88702593 99.18502257 131.88601048 101.32543945 131.88647461 C102.54455521 131.884254 103.76367096 131.88203339 105.01972961 131.87974548 C108 132 108 132 111 133 C113.19646446 137.39292892 112.18584933 143.34581449 112.18530273 148.23071289 C112.18748804 150.42549052 112.20564506 152.61976454 112.22460938 154.81445312 C112.22754365 156.20833161 112.22952822 157.60221249 112.23046875 158.99609375 C112.23457764 160.26638428 112.23868652 161.5366748 112.24291992 162.84545898 C112 166 112 166 110 169 C108.05719757 169.37473011 108.05719757 169.37473011 105.6348877 169.3742218 C104.71788589 169.38123611 103.80088409 169.38825043 102.85609436 169.39547729 C101.8471965 169.38783356 100.83829865 169.38018982 99.79882812 169.37231445 C98.73860947 169.37596512 97.67839081 169.37961578 96.58604431 169.38337708 C93.06761859 169.39150926 89.54964957 169.37785004 86.03125 169.36328125 C83.59509278 169.36276297 81.15893513 169.36327944 78.72277832 169.36479187 C73.61150894 169.36470203 68.5003969 169.35424779 63.38916016 169.33618164 C56.82475425 169.31349419 50.26057842 169.31294912 43.6961441 169.31969929 C38.66398052 169.32303464 33.63186976 169.31641736 28.59971619 169.30657005 C26.17870866 169.30271027 23.75769527 169.30157304 21.33668518 169.3031559 C17.95806606 169.30352517 14.57974621 169.29094509 11.20117188 169.2746582 C10.19227402 169.27713562 9.18337616 169.27961304 8.14390564 169.28216553 C7.22690384 169.27508072 6.30990204 169.26799591 5.3651123 169.26069641 C4.16606892 169.25761711 4.16606892 169.25761711 2.94280243 169.25447559 C1 169 1 169 -1 167 C-2.23102986 163.56200856 -2.12845663 160.17678094 -2.13371277 156.55433655 C-2.13597833 155.9092454 -2.13824388 155.26415426 -2.14057809 154.5995149 C-2.14690313 152.44010431 -2.14608969 150.28075672 -2.14526367 148.12133789 C-2.14825607 146.5722292 -2.15165878 145.02312125 -2.15544128 143.47401428 C-2.16427657 139.26743403 -2.16661918 135.06087411 -2.16725707 130.85428548 C-2.1682067 127.34278506 -2.17188555 123.83128938 -2.17542917 120.31979078 C-2.18357167 112.03586394 -2.18601356 103.75194796 -2.18530273 95.46801758 C-2.18470175 86.92131907 -2.19525826 78.37468363 -2.2110464 69.82800108 C-2.22411838 62.49032038 -2.22948679 55.15266031 -2.22884732 47.81496805 C-2.22859227 43.43240449 -2.23144776 39.04989701 -2.24202538 34.66734505 C-2.25170079 30.54612571 -2.25178938 26.42501614 -2.24450874 22.30379295 C-2.24346226 20.79169683 -2.24582958 19.27959389 -2.2518692 17.76750946 C-2.25958314 15.70242607 -2.25494858 13.63772228 -2.24723816 11.57264709 C-2.24778293 10.417305 -2.24832769 9.26196291 -2.24888897 8.07161045 C-1.99903861 4.98813516 -1.31167505 2.78337382 0 0 Z " fill="#0F423F" transform="translate(673,51)"/>
<path d="M0 0 C1.11901199 -0.00281982 2.23802399 -0.00563965 3.39094543 -0.00854492 C4.62942734 -0.00652069 5.86790924 -0.00449646 7.1439209 -0.00241089 C9.08756783 -0.00503937 9.08756783 -0.00503937 11.07048035 -0.00772095 C14.63443364 -0.01229493 18.19835811 -0.01050587 21.76231194 -0.00734186 C25.48412023 -0.00481808 29.20592599 -0.00715585 32.92773438 -0.00872803 C39.1790003 -0.01054967 45.43025442 -0.00814355 51.68151855 -0.00338745 C58.91889151 0.00205516 66.1562363 0.0002925 73.39360857 -0.00521386 C79.59656787 -0.00974514 85.79951866 -0.01039546 92.00247908 -0.00777519 C95.71201 -0.0062125 99.42152766 -0.00601843 103.13105774 -0.00931168 C107.26426881 -0.01272445 111.39743097 -0.00800041 115.53063965 -0.00241089 C116.76912155 -0.00443512 118.00760345 -0.00645935 119.28361511 -0.00854492 C120.40262711 -0.0057251 121.5216391 -0.00290527 122.67456055 0 C123.65312767 0.00037703 124.63169479 0.00075405 125.63991547 0.0011425 C127.83728027 0.12698364 127.83728027 0.12698364 128.83728027 1.12698364 C129.19371288 5.34287294 129.30693034 9.57212919 129.4498291 13.80007935 C129.52412276 15.92071566 129.61487134 18.04023464 129.7064209 20.16018677 C129.75496381 21.50975995 129.80252149 22.859369 129.84899902 24.20901489 C129.89500244 25.43853882 129.94100586 26.66806274 129.98840332 27.93484497 C129.84251733 31.01636235 129.6394971 32.65148442 127.83728027 35.12698364 C125.10621517 36.03733868 123.53834788 36.24914077 120.73303223 36.24050903 C119.50209587 36.24039574 119.50209587 36.24039574 118.24629211 36.24028015 C117.36495102 36.23511887 116.48360992 36.22995758 115.57556152 36.22463989 C114.66976852 36.22322495 113.76397552 36.22181 112.83073425 36.22035217 C109.93704937 36.21475366 107.04344178 36.20220145 104.14978027 36.18948364 C102.18819285 36.18446845 100.22660421 36.17990558 98.26501465 36.17581177 C93.45574006 36.16478471 88.64652328 36.14752111 83.83728027 36.12698364 C83.83820207 36.78297421 83.83912386 37.43896477 83.84007359 38.11483383 C83.86215236 54.07225975 83.87870333 70.02968036 83.88909245 85.98711777 C83.89425 93.7039927 83.90128243 101.42085744 83.91271973 109.13772583 C83.92268304 115.86328776 83.92913764 122.5888423 83.93136877 129.3144114 C83.93267307 132.87594533 83.93574123 136.43745813 83.94301033 139.99898529 C83.95105688 143.9736216 83.95127034 147.94823719 83.95080566 151.92288208 C83.95440094 153.10539551 83.95799622 154.28790894 83.96170044 155.5062561 C83.96032578 156.58876648 83.95895111 157.67127686 83.95753479 158.78659058 C83.95845658 159.72681942 83.95937838 160.66704826 83.9603281 161.63576889 C83.84475896 163.97557086 83.62494616 165.92181259 82.83728027 168.12698364 C79.69376818 169.69873969 76.3248451 169.31099716 72.87243652 169.33010864 C71.68876747 169.33865875 71.68876747 169.33865875 70.48118591 169.34738159 C68.81091657 169.35683289 67.14062856 169.36336609 65.47033691 169.36721802 C62.91328515 169.37693234 60.35703423 169.40795696 57.8001709 169.43948364 C56.17843089 169.44601286 54.55668512 169.45126365 52.93493652 169.45510864 C52.16923843 169.46745544 51.40354034 169.47980225 50.61463928 169.49252319 C45.32649711 169.470298 45.32649711 169.470298 43.1363554 167.93333721 C41.37677426 165.48665372 41.45314158 163.87124144 41.43855286 160.86888123 C41.42601471 159.77933136 41.41347656 158.68978149 41.40055847 157.56721497 C41.40199356 156.37175552 41.40342865 155.17629608 41.40490723 153.9446106 C41.38961975 152.05663757 41.38961975 152.05663757 41.37402344 150.13052368 C41.34640714 146.67830924 41.33716274 143.22625952 41.33116937 139.77394891 C41.32179764 136.16639676 41.2955953 132.55896824 41.27116394 128.95149231 C41.227462 122.11987659 41.19893782 115.28828482 41.17584056 108.45657176 C41.14880861 100.67907015 41.10489593 92.90169267 41.05955184 85.12427962 C40.9666527 69.12524473 40.89499619 53.12618647 40.83728027 37.12698364 C39.5201001 37.10716431 38.20291992 37.08734497 36.8458252 37.06692505 C31.96476939 36.99092523 27.08401389 36.90219916 22.20324707 36.80960083 C20.08970055 36.77128783 17.97608831 36.73643907 15.86242676 36.70510864 C12.82646168 36.6595086 9.79094999 36.60150581 6.75524902 36.54104614 C5.80828659 36.52949493 4.86132416 36.51794373 3.88566589 36.50604248 C2.56463615 36.47623795 2.56463615 36.47623795 1.21691895 36.4458313 C0.05442879 36.42584579 0.05442879 36.42584579 -1.13154602 36.40545654 C-3.16271973 36.12698364 -3.16271973 36.12698364 -6.16271973 34.12698364 C-6.44235765 31.58476843 -6.53513479 29.28913837 -6.49084473 26.74807739 C-6.48803497 25.65717552 -6.48803497 25.65717552 -6.48516846 24.54423523 C-6.47844396 23.00674862 -6.46452143 21.46927923 -6.44396973 19.93191528 C-6.4127971 17.5703453 -6.4029985 15.20944213 -6.39709473 12.84768677 C-6.38792566 11.35614212 -6.37755019 9.86460429 -6.36584473 8.37307739 C-6.36159485 7.66267807 -6.35734497 6.95227875 -6.35296631 6.22035217 C-6.2649642 0.2285066 -5.88654114 0.00226799 0 0 Z " fill="#0F423F" transform="translate(517.1627197265625,50.873016357421875)"/>
<path d="M0 0 C3.81702382 0.66371597 5.6470461 1.1547317 8.25 4.078125 C8.84868896 4.73482178 9.44737793 5.39151855 10.06420898 6.06811523 C10.70302002 6.78813721 11.34183105 7.50815918 12 8.25 C19.51194236 16.49297932 27.31933941 24.38850374 35.25585938 32.21777344 C36.11888672 33.07274414 36.98191406 33.92771484 37.87109375 34.80859375 C38.64380615 35.56970459 39.41651855 36.33081543 40.21264648 37.11499023 C43.68756044 40.77976426 43.15444922 44.3730006 43.16113281 49.16577148 C43.16858017 50.4318222 43.16858017 50.4318222 43.17617798 51.72344971 C43.1908139 54.5226726 43.19760343 57.32183885 43.203125 60.12109375 C43.20887459 62.06160993 43.21463235 64.00212608 43.22039795 65.94264221 C43.23091154 70.01392889 43.23675209 74.08519579 43.24023438 78.15649414 C43.24572459 83.3801286 43.26976236 88.60350311 43.29820633 93.82705593 C43.31680342 97.8358487 43.32203671 101.84457845 43.32357025 105.85341072 C43.32660316 107.77958665 43.33465306 109.70576131 43.34775543 111.63189507 C43.36475739 114.32307777 43.36295032 117.01361978 43.35644531 119.70483398 C43.3656601 120.50442032 43.37487488 121.30400665 43.3843689 122.12782288 C43.34382436 127.46613746 43.34382436 127.46613746 41.71504211 129.99517822 C38.59163113 131.82514575 34.98468094 131.40332941 31.46484375 131.36328125 C30.21315147 131.36402901 30.21315147 131.36402901 28.93617249 131.36479187 C27.17348853 131.3624526 25.41080116 131.3527327 23.64819336 131.33618164 C20.94419646 131.3125585 18.24118343 131.31562533 15.53710938 131.32226562 C13.82551493 131.31668988 12.11392465 131.30958065 10.40234375 131.30078125 C9.59087387 131.30169266 8.77940399 131.30260406 7.94334412 131.30354309 C2.23103563 131.23103563 2.23103563 131.23103563 0 129 C-0.24609566 126.73926353 -0.24609566 126.73926353 -0.24050903 123.8621521 C-0.24463303 122.2298893 -0.24463303 122.2298893 -0.24884033 120.56465149 C-0.24164978 119.36559677 -0.23445923 118.16654205 -0.22705078 116.93115234 C-0.22734283 115.67264969 -0.22763489 114.41414703 -0.22793579 113.11750793 C-0.22851096 109.66106828 -0.21673024 106.20476669 -0.20278788 102.7483592 C-0.19030777 99.1382056 -0.18911217 95.52804904 -0.18673706 91.9178772 C-0.18051427 85.0790899 -0.16409269 78.24036635 -0.14403808 71.40160716 C-0.12170389 63.61695365 -0.1106919 55.83229714 -0.10064721 48.04761958 C-0.07972712 32.03170904 -0.04453569 16.01586265 0 0 Z " fill="#0E4340" transform="translate(449,89)"/>
<path d="M0 0 C1.33278992 0.00303635 1.33278992 0.00303635 2.69250488 0.00613403 C3.5987561 0.00517731 4.50500732 0.00422058 5.4387207 0.00323486 C7.35876535 0.002553 9.27881229 0.00440771 11.19885254 0.00857544 C14.14861192 0.01392361 17.09821902 0.00863066 20.04797363 0.00222778 C21.90865105 0.00288856 23.76932838 0.00416972 25.63000488 0.00613403 C26.51853149 0.0041098 27.40705811 0.00208557 28.32250977 0 C34.546305 0.02399665 34.546305 0.02399665 35.66125488 1.13894653 C35.75534967 3.16388885 35.7786861 5.19214523 35.77478027 7.2192688 C35.77470474 8.52054214 35.77462921 9.82181549 35.77455139 11.16252136 C35.76944397 12.59346555 35.76422796 14.02440936 35.75891113 15.45535278 C35.75704691 16.91123913 35.75562303 18.36712611 35.75462341 19.82301331 C35.75079854 23.66174032 35.74096852 27.50042973 35.72991943 31.33914185 C35.71970466 35.25352469 35.71512565 39.16791359 35.71008301 43.08230591 C35.69934622 50.76786996 35.68227017 58.45340299 35.66125488 66.13894653 C31.56633674 65.45039828 29.94761849 64.8717798 27.34875488 61.57644653 C24.36728453 57.94823641 21.22577498 54.64951766 17.84875488 51.38894653 C15.941767 49.42747328 14.20132395 47.41545338 12.43859863 45.32644653 C9.96650852 42.46423485 7.44148284 40.04794749 4.47766113 37.70144653 C-2.17122791 32.2589444 -7.51624546 27.7445476 -8.40905762 18.79910278 C-8.56628184 12.90733201 -8.37423771 6.95215379 -7.33874512 1.13894653 C-5.41617337 -0.78362522 -2.55789404 0.00986229 0 0 Z " fill="#0E3D3A" transform="translate(456.3387451171875,50.861053466796875)"/>
<path d="M0 0 C14.30766136 -0.04668014 28.61531094 -0.08183637 42.92303276 -0.10362434 C49.56606556 -0.11407935 56.20904735 -0.1282698 62.85205078 -0.15087891 C69.2581139 -0.17254614 75.66412784 -0.18455568 82.07022476 -0.18975449 C84.51915385 -0.19346127 86.96808012 -0.20069925 89.41698837 -0.21146011 C92.83648329 -0.22589367 96.25577269 -0.22798136 99.67529297 -0.22705078 C100.69668365 -0.23424133 101.71807434 -0.24143188 102.77041626 -0.24884033 C104.16287567 -0.24471634 104.16287567 -0.24471634 105.58346558 -0.24050903 C106.79746694 -0.24327441 106.79746694 -0.24327441 108.03599358 -0.24609566 C110 0 110 0 112 2 C112.42250211 6.39934757 112.37159402 10.81339044 112.37060547 15.23071289 C112.37497726 17.42608279 112.4112845 19.61943941 112.44921875 21.81445312 C112.45508727 23.20832645 112.45905643 24.60220934 112.4609375 25.99609375 C112.46915527 27.26638428 112.47737305 28.5366748 112.48583984 29.84545898 C112 33 112 33 110.31413269 34.67686462 C107.48228987 36.29600748 105.73877896 36.35712287 102.48803711 36.32470703 C101.38266098 36.32125275 100.27728485 36.31779846 99.13841248 36.3142395 C97.35093346 36.28630814 97.35093346 36.28630814 95.52734375 36.2578125 C93.67720421 36.24788773 93.67720421 36.24788773 91.78968811 36.23776245 C88.50741092 36.21830351 85.22557841 36.18645192 81.94348145 36.14770508 C77.3491985 36.09570382 72.7547671 36.06323901 68.16029358 36.03366089 C65.71821308 36.01686347 63.27616452 35.99387498 60.83421326 35.96365356 C59.14305138 35.94901566 59.14305138 35.94901566 57.41772461 35.93408203 C56.44161728 35.92281281 55.46550995 35.91154358 54.45982361 35.89993286 C49.62797468 36.03968256 44.81401777 36.56236202 40 37 C40 46.57 40 56.14 40 66 C46.89519531 65.96519531 46.89519531 65.96519531 53.9296875 65.9296875 C56.83724521 65.91947163 59.74478087 65.90984395 62.65234375 65.90234375 C67.27006612 65.8903758 71.88770939 65.87619915 76.50537109 65.84912109 C80.22712192 65.8274326 83.94878794 65.81543986 87.67059708 65.81024551 C89.09241191 65.80654255 90.51422197 65.79931181 91.93600082 65.78853989 C93.92327114 65.77407881 95.91062631 65.77318354 97.89794922 65.77294922 C99.03046112 65.768508 100.16297302 65.76406677 101.32980347 65.75949097 C104 66 104 66 106 68 C106.25878906 70.94921875 106.25878906 70.94921875 106.265625 74.6875 C106.26753845 75.34580811 106.2694519 76.00411621 106.27142334 76.68237305 C106.2727845 78.0743854 106.26909283 79.46641047 106.26074219 80.85839844 C106.250041 82.99182589 106.26063906 85.12441131 106.2734375 87.2578125 C106.27211589 88.60937686 106.26955347 89.9609407 106.265625 91.3125 C106.26336914 92.54613281 106.26111328 93.77976562 106.25878906 95.05078125 C106 98 106 98 104 100 C101.32980347 100.2784729 101.32980347 100.2784729 97.89794922 100.31884766 C96.61677216 100.33871735 95.33559509 100.35858704 94.01559448 100.37905884 C92.61196058 100.39093617 91.20832484 100.40259898 89.8046875 100.4140625 C88.37263869 100.43276692 86.94060098 100.45233978 85.50857544 100.4727478 C81.73735083 100.52415206 77.96609045 100.56373311 74.19470215 100.60089111 C69.6708258 100.64790819 65.14712805 100.70954136 60.62339783 100.76873779 C53.74900364 100.85705118 46.87464543 100.92674242 40 101 C39.67 111.23 39.34 121.46 39 132 C43.94613281 131.98839844 48.89226563 131.97679687 53.98828125 131.96484375 C57.11914193 131.95973507 60.24999749 131.95492115 63.38085938 131.95117188 C68.35181748 131.94519088 73.32275719 131.93811034 78.29370117 131.92456055 C82.30073943 131.91370634 86.30775797 131.90771777 90.3148098 131.90512276 C91.84464008 131.90327309 93.37446926 131.89966123 94.90429115 131.89426994 C97.04469777 131.88702593 99.18502257 131.88601048 101.32543945 131.88647461 C102.54455521 131.884254 103.76367096 131.88203339 105.01972961 131.87974548 C108 132 108 132 111 133 C113.19646446 137.39292892 112.18584933 143.34581449 112.18530273 148.23071289 C112.18748804 150.42549052 112.20564506 152.61976454 112.22460938 154.81445312 C112.22754365 156.20833161 112.22952822 157.60221249 112.23046875 158.99609375 C112.23457764 160.26638428 112.23868652 161.5366748 112.24291992 162.84545898 C112 166 112 166 110 169 C108.05719757 169.37473011 108.05719757 169.37473011 105.6348877 169.3742218 C104.71788589 169.38123611 103.80088409 169.38825043 102.85609436 169.39547729 C101.8471965 169.38783356 100.83829865 169.38018982 99.79882812 169.37231445 C98.73860947 169.37596512 97.67839081 169.37961578 96.58604431 169.38337708 C93.06761859 169.39150926 89.54964957 169.37785004 86.03125 169.36328125 C83.59509278 169.36276297 81.15893513 169.36327944 78.72277832 169.36479187 C73.61150894 169.36470203 68.5003969 169.35424779 63.38916016 169.33618164 C56.82475425 169.31349419 50.26057842 169.31294912 43.6961441 169.31969929 C38.66398052 169.32303464 33.63186976 169.31641736 28.59971619 169.30657005 C26.17870866 169.30271027 23.75769527 169.30157304 21.33668518 169.3031559 C17.95806606 169.30352517 14.57974621 169.29094509 11.20117188 169.2746582 C10.19227402 169.27713562 9.18337616 169.27961304 8.14390564 169.28216553 C7.22690384 169.27508072 6.30990204 169.26799591 5.3651123 169.26069641 C4.16606892 169.25761711 4.16606892 169.25761711 2.94280243 169.25447559 C1 169 1 169 -1 167 C-2.23102986 163.56200856 -2.12845663 160.17678094 -2.13371277 156.55433655 C-2.13597833 155.9092454 -2.13824388 155.26415426 -2.14057809 154.5995149 C-2.14690313 152.44010431 -2.14608969 150.28075672 -2.14526367 148.12133789 C-2.14825607 146.5722292 -2.15165878 145.02312125 -2.15544128 143.47401428 C-2.16427657 139.26743403 -2.16661918 135.06087411 -2.16725707 130.85428548 C-2.1682067 127.34278506 -2.17188555 123.83128938 -2.17542917 120.31979078 C-2.18357167 112.03586394 -2.18601356 103.75194796 -2.18530273 95.46801758 C-2.18470175 86.92131907 -2.19525826 78.37468363 -2.2110464 69.82800108 C-2.22411838 62.49032038 -2.22948679 55.15266031 -2.22884732 47.81496805 C-2.22859227 43.43240449 -2.23144776 39.04989701 -2.24202538 34.66734505 C-2.25170079 30.54612571 -2.25178938 26.42501614 -2.24450874 22.30379295 C-2.24346226 20.79169683 -2.24582958 19.27959389 -2.2518692 17.76750946 C-2.25958314 15.70242607 -2.25494858 13.63772228 -2.24723816 11.57264709 C-2.24778293 10.417305 -2.24832769 9.26196291 -2.24888897 8.07161045 C-1.99903861 4.98813516 -1.31167505 2.78337382 0 0 Z M0 2 C-0.10125615 4.09408638 -0.13077804 6.19164655 -0.13371277 8.28817749 C-0.13597833 8.95253425 -0.13824388 9.61689101 -0.14057809 10.3013798 C-0.14694527 12.54387338 -0.146087 14.78630694 -0.14526367 17.02880859 C-0.1482535 18.62998025 -0.15165561 20.23115119 -0.15544128 21.83232117 C-0.1643041 26.19389837 -0.16662037 30.55545597 -0.16725707 34.9170413 C-0.1682044 38.55284605 -0.17188071 42.1886462 -0.17542917 45.82444918 C-0.18358262 54.40022108 -0.18601261 62.97598248 -0.18530273 71.55175781 C-0.1847019 80.40914898 -0.1952527 89.26647924 -0.2110464 98.12385499 C-0.22410681 105.71791731 -0.22948725 113.31195969 -0.22884732 120.90603316 C-0.22859187 125.4461904 -0.23146916 129.98629357 -0.24202538 134.52643967 C-0.25168105 138.79617225 -0.25180302 143.06579881 -0.24450874 147.33553505 C-0.24345969 148.90490816 -0.24584468 150.47428778 -0.2518692 152.04364967 C-0.25954723 154.18184431 -0.25497247 156.31966898 -0.24723816 158.45785522 C-0.24778293 159.65580908 -0.24832769 160.85376293 -0.24888897 162.08801842 C-0.21901945 165.19345072 -0.21901945 165.19345072 2 168 C3.98217391 168.44545956 3.98217391 168.44545956 6.30264282 168.36076355 C7.20570663 168.36488754 8.10877045 168.36901154 9.03919983 168.3732605 C10.0325383 168.36247467 11.02587677 168.35168884 12.04931641 168.34057617 C13.09324051 168.34101425 14.13716461 168.34145233 15.21272278 168.34190369 C18.67585722 168.33980756 22.13851225 168.31643734 25.6015625 168.29296875 C27.9976678 168.28737574 30.39377652 168.28310425 32.78988647 168.28010559 C39.10617492 168.26863368 45.42225745 168.2391462 51.73846436 168.20599365 C58.17978123 168.17534335 64.62113127 168.16161104 71.0625 168.14648438 C83.70842135 168.11427885 96.35419974 168.06362821 109 168 C110.45112776 165.09774449 110.12985159 162.55088766 110.1328125 159.3125 C110.13424759 158.32503784 110.13424759 158.32503784 110.13571167 157.31762695 C110.13639225 155.92561752 110.13454646 154.5336049 110.13037109 153.14160156 C110.12502104 151.00839117 110.13032012 148.87539133 110.13671875 146.7421875 C110.13605795 145.39062453 110.13477674 144.0390617 110.1328125 142.6875 C110.13112061 140.83705078 110.13112061 140.83705078 110.12939453 138.94921875 C110.20369803 136.06774669 110.20369803 136.06774669 109 134 C74.35 133.505 74.35 133.505 39 133 C39 121.45 39 109.9 39 98 C45.91259766 98.01740234 45.91259766 98.01740234 52.96484375 98.03515625 C55.87695452 98.04026321 58.78905981 98.045077 61.70117188 98.04882812 C66.3277297 98.05481579 70.95426782 98.06191404 75.58081055 98.07543945 C79.30903401 98.086271 83.03723634 98.0922774 86.76547432 98.09487724 C88.19089656 98.09673101 89.61631759 98.10035071 91.04173088 98.10573006 C93.03163408 98.11294393 95.02155834 98.11340808 97.01147461 98.11352539 C98.71357338 98.11685631 98.71357338 98.11685631 100.45005798 98.12025452 C102.93459305 98.28974423 102.93459305 98.28974423 104 97 C104.10003289 94.86646826 104.13081048 92.72962458 104.1328125 90.59375 C104.13410156 89.29308594 104.13539063 87.99242187 104.13671875 86.65234375 C104.13462402 85.97155762 104.1325293 85.29077148 104.13037109 84.58935547 C104.1250224 82.50871485 104.1303168 80.42829011 104.13671875 78.34765625 C104.13542969 77.04699219 104.13414062 75.74632813 104.1328125 74.40625 C104.13112061 72.60124023 104.13112061 72.60124023 104.12939453 70.75976562 C104.31455977 68.09015518 104.31455977 68.09015518 103 67 C101.0064857 66.87630675 99.0086353 66.8220361 97.01147461 66.79467773 C95.73022202 66.77473251 94.44896942 66.75478729 93.12889099 66.73423767 C91.72004316 66.71725203 90.31119405 66.70037327 88.90234375 66.68359375 C87.46887095 66.66303085 86.03540431 66.64203456 84.60194397 66.62062073 C80.8224688 66.56533141 77.0429383 66.51595255 73.2633667 66.46777344 C68.73205235 66.40879393 64.20083949 66.34252839 59.66960907 66.27747345 C52.77980118 66.17937764 45.88992927 66.09058089 39 66 C39 55.77 39 45.54 39 35 C44.04152344 34.93941406 49.08304688 34.87882812 54.27734375 34.81640625 C57.46289961 34.77593224 60.64844646 34.73516944 63.83398438 34.69335938 C68.89507063 34.62696053 73.95615503 34.56165689 79.01733398 34.50268555 C83.09574663 34.45509841 87.17407262 34.40275792 91.25238228 34.34705925 C92.81175148 34.32661 94.37114446 34.30790125 95.93055534 34.29092598 C98.1073559 34.26693856 100.28399124 34.23687681 102.46069336 34.20532227 C103.70201523 34.18977798 104.9433371 34.1742337 106.22227478 34.15821838 C108.90743216 34.31448486 108.90743216 34.31448486 110 33 C110.1002093 30.72052208 110.13081303 28.43792865 110.1328125 26.15625 C110.13424759 25.12981384 110.13424759 25.12981384 110.13571167 24.0826416 C110.1363933 22.63338123 110.13454023 21.18411782 110.13037109 19.73486328 C110.12502252 17.50937072 110.1303166 15.28407999 110.13671875 13.05859375 C110.13605797 11.65364539 110.1347768 10.24869715 110.1328125 8.84375 C110.13112061 6.91305664 110.13112061 6.91305664 110.12939453 4.94335938 C110.33686143 2.11173843 110.33686143 2.11173843 109 1 C107.5982167 0.90237477 106.19155547 0.87368342 104.78637695 0.87301636 C103.87771881 0.87019653 102.96906067 0.86737671 102.03286743 0.86447144 C101.02815399 0.86649567 100.02344055 0.8685199 98.98828125 0.87060547 C97.41039322 0.86797699 97.41039322 0.86797699 95.80062866 0.86529541 C92.30456926 0.86087457 88.80855997 0.86381571 85.3125 0.8671875 C82.89493805 0.86651453 80.47737617 0.86554456 78.05981445 0.86428833 C72.98550779 0.86281104 67.91121869 0.86496691 62.83691406 0.86962891 C56.31615297 0.8753262 49.79543304 0.87204737 43.27467346 0.86605644 C38.28031094 0.86245167 33.28595826 0.86358903 28.29159546 0.86618423 C25.88650508 0.86685374 23.48141382 0.86602428 21.07632446 0.86370468 C17.72143165 0.86117952 14.3666065 0.86501683 11.01171875 0.87060547 C9.50464859 0.86756912 9.50464859 0.86756912 7.96713257 0.86447144 C6.60414536 0.86870117 6.60414536 0.86870117 5.21362305 0.87301636 C4.02231026 0.8735819 4.02231026 0.8735819 2.80693054 0.87415886 C0.97833188 0.80291088 0.97833188 0.80291088 0 2 Z " fill="#011212" transform="translate(673,51)"/>
<path d="M0 0 C1.11901199 -0.00281982 2.23802399 -0.00563965 3.39094543 -0.00854492 C4.62942734 -0.00652069 5.86790924 -0.00449646 7.1439209 -0.00241089 C9.08756783 -0.00503937 9.08756783 -0.00503937 11.07048035 -0.00772095 C14.63443364 -0.01229493 18.19835811 -0.01050587 21.76231194 -0.00734186 C25.48412023 -0.00481808 29.20592599 -0.00715585 32.92773438 -0.00872803 C39.1790003 -0.01054967 45.43025442 -0.00814355 51.68151855 -0.00338745 C58.91889151 0.00205516 66.1562363 0.0002925 73.39360857 -0.00521386 C79.59656787 -0.00974514 85.79951866 -0.01039546 92.00247908 -0.00777519 C95.71201 -0.0062125 99.42152766 -0.00601843 103.13105774 -0.00931168 C107.26426881 -0.01272445 111.39743097 -0.00800041 115.53063965 -0.00241089 C116.76912155 -0.00443512 118.00760345 -0.00645935 119.28361511 -0.00854492 C120.40262711 -0.0057251 121.5216391 -0.00290527 122.67456055 0 C123.65312767 0.00037703 124.63169479 0.00075405 125.63991547 0.0011425 C127.83728027 0.12698364 127.83728027 0.12698364 128.83728027 1.12698364 C129.19371288 5.34287294 129.30693034 9.57212919 129.4498291 13.80007935 C129.52412276 15.92071566 129.61487134 18.04023464 129.7064209 20.16018677 C129.75496381 21.50975995 129.80252149 22.859369 129.84899902 24.20901489 C129.89500244 25.43853882 129.94100586 26.66806274 129.98840332 27.93484497 C129.84251733 31.01636235 129.6394971 32.65148442 127.83728027 35.12698364 C125.10621517 36.03733868 123.53834788 36.24914077 120.73303223 36.24050903 C119.50209587 36.24039574 119.50209587 36.24039574 118.24629211 36.24028015 C117.36495102 36.23511887 116.48360992 36.22995758 115.57556152 36.22463989 C114.66976852 36.22322495 113.76397552 36.22181 112.83073425 36.22035217 C109.93704937 36.21475366 107.04344178 36.20220145 104.14978027 36.18948364 C102.18819285 36.18446845 100.22660421 36.17990558 98.26501465 36.17581177 C93.45574006 36.16478471 88.64652328 36.14752111 83.83728027 36.12698364 C83.83820207 36.78297421 83.83912386 37.43896477 83.84007359 38.11483383 C83.86215236 54.07225975 83.87870333 70.02968036 83.88909245 85.98711777 C83.89425 93.7039927 83.90128243 101.42085744 83.91271973 109.13772583 C83.92268304 115.86328776 83.92913764 122.5888423 83.93136877 129.3144114 C83.93267307 132.87594533 83.93574123 136.43745813 83.94301033 139.99898529 C83.95105688 143.9736216 83.95127034 147.94823719 83.95080566 151.92288208 C83.95440094 153.10539551 83.95799622 154.28790894 83.96170044 155.5062561 C83.96032578 156.58876648 83.95895111 157.67127686 83.95753479 158.78659058 C83.95845658 159.72681942 83.95937838 160.66704826 83.9603281 161.63576889 C83.84475896 163.97557086 83.62494616 165.92181259 82.83728027 168.12698364 C79.69376818 169.69873969 76.3248451 169.31099716 72.87243652 169.33010864 C71.68876747 169.33865875 71.68876747 169.33865875 70.48118591 169.34738159 C68.81091657 169.35683289 67.14062856 169.36336609 65.47033691 169.36721802 C62.91328515 169.37693234 60.35703423 169.40795696 57.8001709 169.43948364 C56.17843089 169.44601286 54.55668512 169.45126365 52.93493652 169.45510864 C52.16923843 169.46745544 51.40354034 169.47980225 50.61463928 169.49252319 C45.32649711 169.470298 45.32649711 169.470298 43.1363554 167.93333721 C41.37677426 165.48665372 41.45314158 163.87124144 41.43855286 160.86888123 C41.42601471 159.77933136 41.41347656 158.68978149 41.40055847 157.56721497 C41.40199356 156.37175552 41.40342865 155.17629608 41.40490723 153.9446106 C41.38961975 152.05663757 41.38961975 152.05663757 41.37402344 150.13052368 C41.34640714 146.67830924 41.33716274 143.22625952 41.33116937 139.77394891 C41.32179764 136.16639676 41.2955953 132.55896824 41.27116394 128.95149231 C41.227462 122.11987659 41.19893782 115.28828482 41.17584056 108.45657176 C41.14880861 100.67907015 41.10489593 92.90169267 41.05955184 85.12427962 C40.9666527 69.12524473 40.89499619 53.12618647 40.83728027 37.12698364 C39.5201001 37.10716431 38.20291992 37.08734497 36.8458252 37.06692505 C31.96476939 36.99092523 27.08401389 36.90219916 22.20324707 36.80960083 C20.08970055 36.77128783 17.97608831 36.73643907 15.86242676 36.70510864 C12.82646168 36.6595086 9.79094999 36.60150581 6.75524902 36.54104614 C5.80828659 36.52949493 4.86132416 36.51794373 3.88566589 36.50604248 C2.56463615 36.47623795 2.56463615 36.47623795 1.21691895 36.4458313 C0.05442879 36.42584579 0.05442879 36.42584579 -1.13154602 36.40545654 C-3.16271973 36.12698364 -3.16271973 36.12698364 -6.16271973 34.12698364 C-6.44235765 31.58476843 -6.53513479 29.28913837 -6.49084473 26.74807739 C-6.48803497 25.65717552 -6.48803497 25.65717552 -6.48516846 24.54423523 C-6.47844396 23.00674862 -6.46452143 21.46927923 -6.44396973 19.93191528 C-6.4127971 17.5703453 -6.4029985 15.20944213 -6.39709473 12.84768677 C-6.38792566 11.35614212 -6.37755019 9.86460429 -6.36584473 8.37307739 C-6.36159485 7.66267807 -6.35734497 6.95227875 -6.35296631 6.22035217 C-6.2649642 0.2285066 -5.88654114 0.00226799 0 0 Z M-5.16271973 2.12698364 C-5.26292902 4.40646156 -5.29353276 6.68905499 -5.29553223 8.97073364 C-5.29648895 9.65502441 -5.29744568 10.33931519 -5.2984314 11.04434204 C-5.29911302 12.49360241 -5.29725995 13.94286582 -5.29309082 15.39212036 C-5.28774225 17.61761292 -5.29303633 19.84290365 -5.29943848 22.06838989 C-5.29877769 23.47333826 -5.29749652 24.8782865 -5.29553223 26.28323364 C-5.2944043 27.57036255 -5.29327637 28.85749146 -5.29211426 30.18362427 C-5.49958115 33.01524521 -5.49958115 33.01524521 -4.16271973 34.12698364 C-2.68917625 34.22002382 -1.21121382 34.24444629 0.26525879 34.24050903 C1.2061586 34.2404335 2.14705841 34.24035797 3.11647034 34.24028015 C4.13937668 34.23511887 5.16228302 34.22995758 6.21618652 34.22463989 C7.77888527 34.22251747 7.77888527 34.22251747 9.37315369 34.22035217 C12.71539121 34.21473444 16.05756284 34.20217894 19.39978027 34.18948364 C21.65954493 34.18447093 23.91931064 34.17990763 26.17907715 34.17581177 C31.73183418 34.16475925 37.28455252 34.14800388 42.83728027 34.12698364 C42.83451489 35.13554397 42.83451489 35.13554397 42.83169365 36.16447926 C42.78755307 52.51377197 42.75444246 68.86304585 42.73365593 85.21238422 C42.72333692 93.11875356 42.70926468 101.02508317 42.68640137 108.931427 C42.66648658 115.82141861 42.65356838 122.71138144 42.64910328 129.60140103 C42.64649265 133.25067944 42.64034363 136.89987552 42.62582016 140.54912758 C42.60975046 144.61979472 42.60929935 148.69031811 42.61022949 152.76101685 C42.60303894 153.97517776 42.59584839 155.18933868 42.58843994 156.44029236 C42.59118927 157.54667053 42.5939386 158.65304871 42.59677124 159.79295349 C42.59400586 161.23786399 42.59400586 161.23786399 42.59118462 162.71196461 C42.67377556 165.38817571 42.67377556 165.38817571 44.83728027 168.12698364 C47.50923383 168.41886969 49.94607175 168.52312623 52.61853027 168.49026489 C53.3878186 168.4907634 54.15710693 168.4912619 54.94970703 168.49177551 C56.57713401 168.4894337 58.20456451 168.47969877 59.83190918 168.46316528 C62.32751745 168.43957592 64.82205766 168.44260262 67.31774902 168.44924927 C68.8971825 168.44367251 70.47661146 168.43656264 72.05603027 168.42776489 C72.80501587 168.4286763 73.55400146 168.42958771 74.32568359 168.43052673 C78.54034355 168.51171017 78.54034355 168.51171017 81.83728027 166.12698364 C82.13614532 163.71824752 82.13614532 163.71824752 82.07778931 160.87524414 C82.08053864 159.76182648 82.08328796 158.64840881 82.08612061 157.50125122 C82.07893005 156.27414429 82.0717395 155.04703735 82.06433105 153.78274536 C82.06462311 152.49498199 82.06491516 151.20721863 82.06521606 149.88043213 C82.06579127 146.34341783 82.05401 142.80653844 82.04006815 139.26955557 C82.0275886 135.57532016 82.02639249 131.88108185 82.02401733 128.18682861 C82.01779438 121.18867016 82.00137258 114.190574 81.98131835 107.19244301 C81.95898467 99.22641427 81.9479723 91.2603826 81.93792748 83.29433036 C81.91700702 66.90517829 81.88181527 50.51608891 81.83728027 34.12698364 C82.65747147 34.13364548 82.65747147 34.13364548 83.49423218 34.14044189 C89.17154331 34.1845972 94.84880588 34.21481744 100.52624512 34.23684692 C102.64670797 34.24692115 104.76715688 34.26058098 106.88757324 34.27786255 C109.9307397 34.30204854 112.97372294 34.31345234 116.01696777 34.32229614 C117.44515335 34.33778 117.44515335 34.33778 118.90219116 34.35357666 C119.78295319 34.35372772 120.66371521 34.35387878 121.57116699 34.35403442 C122.73698807 34.36069626 122.73698807 34.36069626 123.92636108 34.36749268 C126.07801417 34.29509759 126.07801417 34.29509759 127.83728027 32.12698364 C128.1329797 29.03355643 128.1329797 29.03355643 128.06774902 25.40432739 C128.0672908 24.74364761 128.06683258 24.08296783 128.06636047 23.40226746 C128.06333948 22.00604455 128.05545769 20.60982497 128.04309082 19.21365356 C128.02482223 17.06940866 128.02258121 14.92559515 128.02282715 12.78128052 C128.63897323 6.47093948 128.63897323 6.47093948 126.83728027 1.12698364 C125.1440097 1.02861323 123.44661372 1.00066349 121.75048828 1 C120.09721275 0.99577026 120.09721275 0.99577026 118.41053772 0.99145508 C116.58086708 0.99449142 116.58086708 0.99449142 114.7142334 0.99758911 C113.43797592 0.99583679 112.16171844 0.99408447 110.8467865 0.99227905 C107.33655036 0.98770515 103.82634348 0.9894941 100.3161068 0.99265814 C96.65035292 0.99518196 92.98460163 0.99284414 89.31884766 0.99127197 C83.16173857 0.98945034 77.00464145 0.99185641 70.84753418 0.99661255 C63.71922423 1.00205516 56.59094287 1.0002925 49.46263361 0.99478614 C43.35309176 0.99025482 37.24355855 0.98960456 31.13401556 0.99222481 C27.48037592 0.99378748 23.82674975 0.99398162 20.17311096 0.99068832 C16.10216567 0.98727549 12.03127002 0.99199965 7.96032715 0.99758911 C6.74054672 0.99556488 5.5207663 0.99354065 4.26402283 0.99145508 C3.16183914 0.9942749 2.05965546 0.99709473 0.92407227 1 C-0.52165539 1.00056554 -0.52165539 1.00056554 -1.99658966 1.0011425 C-4.14231394 0.88494239 -4.14231394 0.88494239 -5.16271973 2.12698364 Z " fill="#010F0E" transform="translate(517.1627197265625,50.873016357421875)"/>
<path d="M0 0 C1.33278992 0.00303635 1.33278992 0.00303635 2.69250488 0.00613403 C3.5987561 0.00517731 4.50500732 0.00422058 5.4387207 0.00323486 C7.35876535 0.002553 9.27881229 0.00440771 11.19885254 0.00857544 C14.14861192 0.01392361 17.09821902 0.00863066 20.04797363 0.00222778 C21.90865105 0.00288856 23.76932838 0.00416972 25.63000488 0.00613403 C26.51853149 0.0041098 27.40705811 0.00208557 28.32250977 0 C34.546305 0.02399665 34.546305 0.02399665 35.66125488 1.13894653 C35.76474334 3.25830625 35.79648874 5.38117326 35.80169678 7.50305176 C35.8046679 8.17557562 35.80763902 8.84809949 35.81070018 9.54100287 C35.8194228 11.81113055 35.82089841 14.08120573 35.8223877 16.35134888 C35.82701335 17.97222508 35.83203767 19.59310018 35.83743286 21.213974 C35.85058318 25.62926424 35.85700692 30.04453925 35.86144352 34.45984602 C35.86437 37.21557923 35.86847398 39.97130824 35.87294769 42.72703934 C35.88662953 51.34103101 35.89629283 59.95501312 35.90014958 68.56901491 C35.90463224 78.52756394 35.92218688 88.48597584 35.95115018 98.44448316 C35.9727357 106.13196292 35.98285219 113.81940402 35.9841907 121.50691378 C35.98524098 126.10299416 35.99119584 130.69894576 36.00901031 135.29499435 C36.02543706 139.61729124 36.02767295 143.93936181 36.01887131 148.2616787 C36.01809802 149.85040707 36.02248178 151.43914734 36.03232956 153.02784538 C36.044963 155.19246116 36.03922018 157.35626492 36.02874756 159.52087402 C36.0309474 161.33992784 36.0309474 161.33992784 36.03319168 163.19573021 C35.66125488 166.13894653 35.66125488 166.13894653 34.25838661 168.02750492 C32.23657872 169.43447805 30.99849504 169.53599868 28.54455566 169.57473755 C27.72004913 169.59387711 26.8955426 169.61301666 26.04605103 169.63273621 C24.71475662 169.63774391 24.71475662 169.63774391 23.35656738 169.64285278 C22.44043671 169.65283798 21.52430603 169.66282318 20.58041382 169.67311096 C18.64207476 169.68829951 16.70365729 169.69533653 14.76525879 169.69485474 C11.80348936 169.7014084 8.84508592 169.75585742 5.88391113 169.81277466 C3.99980801 169.8215785 2.11568896 169.82753153 0.23156738 169.83035278 C-0.65191376 169.85190933 -1.5353949 169.87346588 -2.44564819 169.89567566 C-7.03357354 169.84470613 -8.72121218 169.71746288 -12.18273926 166.47463989 C-12.89422119 165.37386108 -13.60570312 164.27308228 -14.33874512 163.13894653 C-15.02009521 162.15796997 -15.70144531 161.17699341 -16.40344238 160.16629028 C-17.06400635 159.14664185 -17.72457031 158.12699341 -18.40515137 157.07644653 C-18.7659227 156.52206909 -19.12669403 155.96769165 -19.49839783 155.39651489 C-20.63630363 153.6463123 -21.76891621 151.89276108 -22.90124512 150.13894653 C-24.03836983 148.38594985 -25.17656826 146.63365354 -26.31480408 144.88137817 C-27.34602753 143.29254046 -28.37480969 141.70211901 -29.40344238 140.11160278 C-30.76746268 138.01644558 -32.16447455 135.94258585 -33.58459473 133.88504028 C-35.33874512 131.13894653 -35.33874512 131.13894653 -35.33874512 129.13894653 C-34.67874512 129.13894653 -34.01874512 129.13894653 -33.33874512 129.13894653 C-31.86706543 131.14309692 -31.86706543 131.14309692 -30.16687012 133.92410278 C-29.54489746 134.92973267 -28.9229248 135.93536255 -28.28210449 136.97146606 C-27.6407959 138.01673462 -26.9994873 139.06200317 -26.33874512 140.13894653 C-25.12852756 142.05641317 -23.91505115 143.97182735 -22.69812012 145.88504028 C-20.87658014 148.75731706 -19.05511694 151.6296202 -17.23718262 154.50418091 C-16.35159668 155.8992688 -16.35159668 155.8992688 -15.44812012 157.32254028 C-14.65873047 158.56862061 -14.65873047 158.56862061 -13.85339355 159.83987427 C-12.4322007 161.99709109 -10.88871753 164.07231665 -9.33874512 166.13894653 C4.52125488 166.13894653 18.38125488 166.13894653 32.66125488 166.13894653 C32.99125488 111.68894653 33.32125488 57.23894653 33.66125488 1.13894653 C20.79125488 1.46894653 7.92125488 1.79894653 -5.33874512 2.13894653 C-5.35332764 5.15776978 -5.36791016 8.17659302 -5.38293457 11.28689575 C-5.43318636 21.24152312 -5.49976435 31.19599252 -5.57446003 41.15046501 C-5.61925992 47.18811596 -5.65849466 53.22569792 -5.68518066 59.26345825 C-5.71111786 65.08611161 -5.75145169 70.90850084 -5.80193138 76.73099136 C-5.81866518 78.9565923 -5.8301387 81.18223898 -5.83635902 83.40789413 C-5.84592951 86.51628309 -5.87390352 89.62398627 -5.90637207 92.73220825 C-5.90493698 93.66009155 -5.90350189 94.58797485 -5.90202332 95.54397583 C-5.92083054 96.81022293 -5.92083054 96.81022293 -5.9400177 98.10205078 C-5.94462667 98.83764158 -5.94923563 99.57323238 -5.95398426 100.33111382 C-6.33874512 102.13894653 -6.33874512 102.13894653 -9.33874512 104.13894653 C-10.51107196 102.51802523 -11.67645282 100.8920782 -12.83874512 99.26394653 C-13.81327637 97.90656372 -13.81327637 97.90656372 -14.80749512 96.52175903 C-16.33874512 94.13894653 -16.33874512 94.13894653 -16.33874512 92.13894653 C-17.82374512 91.64394653 -17.82374512 91.64394653 -19.33874512 91.13894653 C-19.00874512 89.81894653 -18.67874512 88.49894653 -18.33874512 87.13894653 C-15.36874512 91.42894653 -12.39874512 95.71894653 -9.33874512 100.13894653 C-8.44389269 97.45438926 -8.2074191 95.8941826 -8.18725586 93.14038086 C-8.17474037 91.92472443 -8.17474037 91.92472443 -8.16197205 90.68450928 C-8.15778763 89.79919525 -8.15360321 88.91388123 -8.14929199 88.0017395 C-8.13685204 86.59897766 -8.13685204 86.59897766 -8.12416077 85.1678772 C-8.10675796 83.13643971 -8.09159177 81.10498213 -8.0783844 79.07351303 C-8.05738086 75.86367255 -8.03035799 72.65393358 -8.00170898 69.44415283 C-7.93182847 61.47438585 -7.87238287 53.50454707 -7.81268311 45.53469849 C-7.76184583 38.79858187 -7.70705904 32.06252058 -7.64686584 25.32648087 C-7.62019588 22.15500762 -7.59944165 18.98352948 -7.57885742 15.81201172 C-7.56226306 13.88046012 -7.54539199 11.94891086 -7.52819824 10.0173645 C-7.52401382 9.12800201 -7.51982941 8.23863953 -7.51551819 7.32232666 C-7.44036357 0.07319422 -7.24448501 0.02793205 0 0 Z " fill="#000A0A" transform="translate(384.3387451171875,50.861053466796875)"/>
<path d="M0 0 C3.81702382 0.66371597 5.6470461 1.1547317 8.25 4.078125 C8.84868896 4.73482178 9.44737793 5.39151855 10.06420898 6.06811523 C10.70302002 6.78813721 11.34183105 7.50815918 12 8.25 C19.51194236 16.49297932 27.31933941 24.38850374 35.25585938 32.21777344 C36.11888672 33.07274414 36.98191406 33.92771484 37.87109375 34.80859375 C38.64380615 35.56970459 39.41651855 36.33081543 40.21264648 37.11499023 C43.68756044 40.77976426 43.15444922 44.3730006 43.16113281 49.16577148 C43.16858017 50.4318222 43.16858017 50.4318222 43.17617798 51.72344971 C43.1908139 54.5226726 43.19760343 57.32183885 43.203125 60.12109375 C43.20887459 62.06160993 43.21463235 64.00212608 43.22039795 65.94264221 C43.23091154 70.01392889 43.23675209 74.08519579 43.24023438 78.15649414 C43.24572459 83.3801286 43.26976236 88.60350311 43.29820633 93.82705593 C43.31680342 97.8358487 43.32203671 101.84457845 43.32357025 105.85341072 C43.32660316 107.77958665 43.33465306 109.70576131 43.34775543 111.63189507 C43.36475739 114.32307777 43.36295032 117.01361978 43.35644531 119.70483398 C43.3656601 120.50442032 43.37487488 121.30400665 43.3843689 122.12782288 C43.34382436 127.46613746 43.34382436 127.46613746 41.71504211 129.99517822 C38.59163113 131.82514575 34.98468094 131.40332941 31.46484375 131.36328125 C30.21315147 131.36402901 30.21315147 131.36402901 28.93617249 131.36479187 C27.17348853 131.3624526 25.41080116 131.3527327 23.64819336 131.33618164 C20.94419646 131.3125585 18.24118343 131.31562533 15.53710938 131.32226562 C13.82551493 131.31668988 12.11392465 131.30958065 10.40234375 131.30078125 C9.59087387 131.30169266 8.77940399 131.30260406 7.94334412 131.30354309 C2.23103563 131.23103563 2.23103563 131.23103563 0 129 C-0.24609566 126.73926353 -0.24609566 126.73926353 -0.24050903 123.8621521 C-0.24463303 122.2298893 -0.24463303 122.2298893 -0.24884033 120.56465149 C-0.24164978 119.36559677 -0.23445923 118.16654205 -0.22705078 116.93115234 C-0.22734283 115.67264969 -0.22763489 114.41414703 -0.22793579 113.11750793 C-0.22851096 109.66106828 -0.21673024 106.20476669 -0.20278788 102.7483592 C-0.19030777 99.1382056 -0.18911217 95.52804904 -0.18673706 91.9178772 C-0.18051427 85.0790899 -0.16409269 78.24036635 -0.14403808 71.40160716 C-0.12170389 63.61695365 -0.1106919 55.83229714 -0.10064721 48.04761958 C-0.07972712 32.03170904 -0.04453569 16.01586265 0 0 Z M2 2 C2 43.91 2 85.82 2 129 C14.54 129 27.08 129 40 129 C42.02606136 126.97393864 41.19877714 122.80975865 41.22460938 120.02709961 C41.23599945 119.19124329 41.24738953 118.35538696 41.25912476 117.49420166 C41.36997561 108.7278051 41.41725031 99.96055367 41.45996094 91.19360352 C41.48220999 87.03497902 41.5239337 82.87725563 41.58300781 78.71899414 C41.65418698 73.6991783 41.69080747 68.68020861 41.70307922 63.65991402 C41.713468 61.7489449 41.73586425 59.83800074 41.77067566 57.92732048 C42.45299653 46.22172711 42.45299653 46.22172711 37.7121582 36.03149414 C36.50859006 34.98094462 35.27421138 33.9636472 34 33 C33.26354248 32.21560547 32.52708496 31.43121094 31.76831055 30.62304688 C29.74649468 28.57683385 27.72061112 26.53499537 25.6875 24.5 C24.97271484 23.77296875 24.25792969 23.0459375 23.52148438 22.296875 C22.83763672 21.61109375 22.15378906 20.9253125 21.44921875 20.21875 C20.83393311 19.59935547 20.21864746 18.97996094 19.5847168 18.34179688 C18.09168686 16.78460336 18.09168686 16.78460336 16 17 C15.6596875 16.18789062 15.6596875 16.18789062 15.3125 15.359375 C13.58704892 12.25767128 11.38706787 9.87299899 9 7.25 C8.54882812 6.74339844 8.09765625 6.23679687 7.6328125 5.71484375 C6.46639188 4.43454183 5.23716029 3.21208271 4 2 C3.34 2 2.68 2 2 2 Z " fill="#071E1D" transform="translate(449,89)"/>
<path d="M0 0 C0.33 0 0.66 0 1 0 C1 54.78 1 109.56 1 166 C-1.24017201 167.12008601 -2.51686735 167.15441329 -5.00317383 167.20874023 C-5.82775589 167.22803085 -6.65233795 167.24732147 -7.50190735 167.26719666 C-11.27474602 167.32493322 -15.0473941 167.37421145 -18.82055664 167.4050293 C-20.80999092 167.42662006 -22.79932993 167.46073572 -24.78833008 167.50756836 C-27.65749497 167.57451475 -30.52469589 167.60201793 -33.39453125 167.62109375 C-34.28114944 167.64892441 -35.16776764 167.67675507 -36.08125305 167.70542908 C-40.68300771 167.69012092 -42.36969737 167.58905019 -45.84619141 164.34008789 C-46.91232666 162.68674438 -46.91232666 162.68674438 -48 161 C-48.6813501 160.01902344 -49.3627002 159.03804687 -50.06469727 158.02734375 C-50.72526123 157.00769531 -51.3858252 155.98804688 -52.06640625 154.9375 C-52.42717758 154.38312256 -52.78794891 153.82874512 -53.15965271 153.25756836 C-54.29755852 151.50736577 -55.43017109 149.75381454 -56.5625 148 C-57.69962471 146.24700332 -58.83782314 144.49470701 -59.97605896 142.74243164 C-61.00728241 141.15359392 -62.03606457 139.56317248 -63.06469727 137.97265625 C-64.42871756 135.87749905 -65.82572944 133.80363931 -67.24584961 131.74609375 C-69 129 -69 129 -69 127 C-68.34 127 -67.68 127 -67 127 C-65.52832031 129.00415039 -65.52832031 129.00415039 -63.828125 131.78515625 C-63.20615234 132.79078613 -62.58417969 133.79641602 -61.94335938 134.83251953 C-61.30205078 135.87778809 -60.66074219 136.92305664 -60 138 C-58.78978244 139.91746664 -57.57630604 141.83288082 -56.359375 143.74609375 C-54.53783503 146.61837053 -52.71637182 149.49067367 -50.8984375 152.36523438 C-50.01285156 153.76032227 -50.01285156 153.76032227 -49.109375 155.18359375 C-48.31998535 156.42967407 -48.31998535 156.42967407 -47.51464844 157.70092773 C-46.09345558 159.85814455 -44.54997241 161.93337012 -43 164 C-29.14 164 -15.28 164 -1 164 C-0.67 109.88 -0.34 55.76 0 0 Z " fill="#051A1A" transform="translate(418,53)"/>
<path d="M0 0 C6.31219696 3.15609848 9.0930614 7.45176423 12.625 13.3125 C17.54985167 21.34729394 22.72654934 29.19080498 28 37 C27.505 37.99 27.505 37.99 27 39 C26.31897217 37.9805127 25.63794434 36.96102539 24.9362793 35.91064453 C22.40930378 32.13106257 19.87486513 28.35653636 17.33813477 24.58349609 C16.24103672 22.94945123 15.14597047 21.31404032 14.05297852 19.67724609 C12.48204543 17.32548154 10.90388325 14.97871822 9.32421875 12.6328125 C8.83660568 11.89942657 8.34899261 11.16604065 7.84660339 10.41043091 C7.38635269 9.7298764 6.92610199 9.0493219 6.4519043 8.34814453 C6.0499736 7.74857941 5.64804291 7.14901428 5.2339325 6.53128052 C3.89566217 4.71389674 3.89566217 4.71389674 1 3 C1.00222061 4.28817123 1.00444122 5.57634247 1.00672913 6.90354919 C1.02695819 19.01462457 1.041971 31.12569653 1.05181217 43.23678493 C1.0570416 49.46393472 1.06414033 55.69107092 1.07543945 61.91821289 C1.08626621 67.92226865 1.09227638 73.92631129 1.09487724 79.93037605 C1.09673188 82.2266161 1.10035321 84.52285539 1.10573006 86.81908989 C1.11293768 90.02320814 1.11399106 93.2272715 1.11352539 96.43139648 C1.11712067 97.39092728 1.12071594 98.35045807 1.12442017 99.33906555 C1.1230455 100.20709808 1.12167084 101.07513062 1.12025452 101.96946716 C1.12117631 102.72810279 1.1220981 103.48673841 1.12304783 104.268363 C1 106 1 106 0 107 C-2.8116338 107.08861992 -5.59858255 107.11522355 -8.41015625 107.09765625 C-9.25219101 107.0962413 -10.09422577 107.09482635 -10.96177673 107.09336853 C-13.66205335 107.08775263 -16.36224828 107.07519748 -19.0625 107.0625 C-20.88867068 107.05748705 -22.71484266 107.05292379 -24.54101562 107.04882812 C-29.02737542 107.03777804 -33.51367384 107.02050279 -38 107 C-38 106.67 -38 106.34 -38 106 C-25.79 105.67 -13.58 105.34 -1 105 C-0.67 70.35 -0.34 35.7 0 0 Z " fill="#00100F" transform="translate(303,113)"/>
<path d="M0 0 C0.33 0 0.66 0 1 0 C1 10.23 1 20.46 1 31 C5.94613281 30.98839844 10.89226563 30.97679687 15.98828125 30.96484375 C19.11914193 30.95973507 22.24999749 30.95492115 25.38085938 30.95117188 C30.35181748 30.94519088 35.32275719 30.93811034 40.29370117 30.92456055 C44.30073943 30.91370634 48.30775797 30.90771777 52.3148098 30.90512276 C53.84464008 30.90327309 55.37446926 30.89966123 56.90429115 30.89426994 C59.04469777 30.88702593 61.18502257 30.88601048 63.32543945 30.88647461 C65.15411308 30.88314369 65.15411308 30.88314369 67.01972961 30.87974548 C70 31 70 31 73 32 C74.48679725 34.97359449 74.11112605 37.66299179 74.09765625 40.9765625 C74.0962413 41.66181 74.09482635 42.3470575 74.09336853 43.05307007 C74.08776675 45.24375761 74.07521406 47.4343433 74.0625 49.625 C74.05748522 51.10937352 74.05292228 52.59374865 74.04882812 54.078125 C74.03779677 57.71878315 74.02053099 61.35938164 74 65 C73.34 65 72.68 65 72 65 C71.67 54.44 71.34 43.88 71 33 C65.95847656 33.01160156 60.91695312 33.02320313 55.72265625 33.03515625 C52.5371081 33.04026313 49.35156496 33.04507691 46.16601562 33.04882812 C41.10488848 33.05481611 36.04377936 33.06191521 30.98266602 33.07543945 C26.90431457 33.08626991 22.82598243 33.09227717 18.74761772 33.09487724 C17.18822361 33.09673121 15.6288306 33.10035127 14.06944466 33.10573006 C11.89270838 33.11294262 9.71605286 33.11399085 7.53930664 33.11352539 C5.67732384 33.11685631 5.67732384 33.11685631 3.77772522 33.12025452 C1 33 1 33 0 32 C-0.0883967 29.6243148 -0.11530305 27.27791326 -0.09765625 24.90234375 C-0.0962413 24.19348526 -0.09482635 23.48462677 -0.09336853 22.75428772 C-0.08775443 20.48198288 -0.07519963 18.20977525 -0.0625 15.9375 C-0.05748681 14.40039204 -0.05292359 12.86328255 -0.04882812 11.32617188 C-0.03778042 7.55074358 -0.02050641 3.77538829 0 0 Z " fill="#021413" transform="translate(711,152)"/>
<path d="M0 0 C-8.48979189 6.24143599 -16.9192767 9.43880836 -27 12 C-28.42699219 12.37125 -28.42699219 12.37125 -29.8828125 12.75 C-47.75500698 16.50159767 -70.16149183 15.50632292 -87 8 C-83.66791288 6.87419279 -81.84605152 7.14415368 -78.5625 8.3125 C-63.05493071 13.22623562 -45.82622574 13.66205547 -30 10 C-29.14148438 9.86722656 -28.28296875 9.73445312 -27.3984375 9.59765625 C-20.43134532 8.49260387 -15.02492683 6.02492683 -10 1 C-8.125 0.33203125 -8.125 0.33203125 -6 -0.1875 C-5.29875 -0.36667969 -4.5975 -0.54585937 -3.875 -0.73046875 C-2 -1 -2 -1 0 0 Z " fill="#000F0E" transform="translate(198,209)"/>
<path d="M0 0 C1.16015625 0.72316406 1.16015625 0.72316406 2.34375 1.4609375 C3.3853125 2.09257812 4.426875 2.72421875 5.5 3.375 C6.5209375 4.00148437 7.541875 4.62796875 8.59375 5.2734375 C18.13015216 10.10725602 29.90545593 10.5699649 40.265625 8.27734375 C45.97695477 6.30709451 51.05764709 3.45539859 56 0 C53.87845107 5.23167301 49.89045278 6.67858254 45 9 C44.3296875 9.32484375 43.659375 9.6496875 42.96875 9.984375 C32.9273308 14.07818437 20.58642371 13.08565388 10.640625 9.28125 C6.71651714 7.377245 3.05488933 5.14473902 0 2 C0 1.34 0 0.68 0 0 Z " fill="#021413" transform="translate(120,176)"/>
<path d="M0 0 C-8.98940136 6.29965922 -18.65769792 12.03111837 -30 11 C-28 9 -28 9 -24.375 8.6875 C-18.58762613 8.11721133 -14.05271105 5.05271105 -10 1 C-8.125 0.33203125 -8.125 0.33203125 -6 -0.1875 C-4.948125 -0.45626953 -4.948125 -0.45626953 -3.875 -0.73046875 C-2 -1 -2 -1 0 0 Z " fill="#051918" transform="translate(198,209)"/>
<path d="M0 0 C0.33 0.66 0.66 1.32 1 2 C-2.36148892 9.59988799 -7.98423851 16.3451842 -14 22 C-14.66 22 -15.32 22 -16 22 C-15.75 19.625 -15.75 19.625 -15 17 C-13.0625 15.9375 -13.0625 15.9375 -11 15 C-10.31731862 13.67479497 -9.6492959 12.34187818 -9 11 C-8.01 10.67 -7.02 10.34 -6 10 C-4.57838199 7.94469573 -4.57838199 7.94469573 -3.375 5.5 C-1.05298013 1.05298013 -1.05298013 1.05298013 0 0 Z " fill="#092221" transform="translate(219,182)"/>
<path d="M0 0 C14.85 0 29.7 0 45 0 C45.66 1.32 46.32 2.64 47 4 C46.37456299 3.67854004 45.74912598 3.35708008 45.10473633 3.02587891 C40.82565685 1.61196903 36.80466837 1.64390038 32.32421875 1.5859375 C31.3990596 1.56657135 30.47390045 1.5472052 29.52070618 1.5272522 C26.57639683 1.46764746 23.63204798 1.42114752 20.6875 1.375 C18.68683225 1.33680264 16.68618064 1.29774988 14.68554688 1.2578125 C9.7904962 1.16196159 4.89536855 1.07786 0 1 C0 0.67 0 0.34 0 0 Z " fill="#0E3231" transform="translate(264,52)"/>
<path d="M0 0 C4.20240011 3.71750779 6.99782679 8.31660979 10 13 C10.66 12.01 11.32 11.02 12 10 C12 11.98 12 13.96 12 16 C11.01 16 10.02 16 9 16 C7.39453125 14.1015625 7.39453125 14.1015625 5.8125 11.625 C5.28269531 10.81289062 4.75289063 10.00078125 4.20703125 9.1640625 C3 7 3 7 3 5 C2.01 4.67 1.02 4.34 0 4 C0 2.68 0 1.36 0 0 Z " fill="#000E0D" transform="translate(365,138)"/>
<path d="M0 0 C3.1870711 1.36982105 4.93286908 2.84225143 7.0625 5.5625 C9.12532214 8.19437653 9.71297618 8.90432539 13 10 C13.33 11.65 13.66 13.3 14 15 C8.79814679 10.75358921 4.15632577 6.29331458 0 1 C0 0.67 0 0.34 0 0 Z " fill="#041B19" transform="translate(469,95)"/>
<path d="M0 0 C3.78699616 3.36621881 6.8272631 7.41641804 9 12 C8.67 12.66 8.34 13.32 8 14 C5 10.25 5 10.25 5 8 C4.01 7.67 3.02 7.34 2 7 C0 4 0 4 0 0 Z " fill="#041918" transform="translate(338,96)"/>
<path d="M0 0 C-3.732388 3.57011026 -8.0949989 4.10913442 -13 5 C-11.72781894 2.6146605 -10.63730157 1.24892556 -8.08984375 0.25390625 C-2.45689655 -1.22844828 -2.45689655 -1.22844828 0 0 Z " fill="#0E2B29" transform="translate(198,209)"/>
<path d="M0 0 C1.06528748 2.73019786 1.07998186 3.79298812 0.00390625 6.578125 C-0.47175781 7.45984375 -0.94742188 8.3415625 -1.4375 9.25 C-1.91058594 10.14203125 -2.38367188 11.0340625 -2.87109375 11.953125 C-3.24363281 12.62859375 -3.61617187 13.3040625 -4 14 C-4.99 13.67 -5.98 13.34 -7 13 C-6.36771484 11.96939453 -6.36771484 11.96939453 -5.72265625 10.91796875 C-5.17480469 10.01691406 -4.62695312 9.11585938 -4.0625 8.1875 C-3.51722656 7.29417969 -2.97195312 6.40085938 -2.41015625 5.48046875 C-0.88990422 2.99296438 -0.88990422 2.99296438 0 0 Z " fill="#021514" transform="translate(183,162)"/>
<path d="M0 0 C4 4.625 4 4.625 4 8 C3.01 7.67 2.02 7.34 1 7 C1 6.34 1 5.68 1 5 C0.34 5 -0.32 5 -1 5 C-0.67 3.35 -0.34 1.7 0 0 Z " fill="#0C2725" transform="translate(358,127)"/>
<path d="M0 0 C2.94721162 2.74395564 5.19168608 5.38337216 7 9 C6.67 9.66 6.34 10.32 6 11 C2.90407165 7.4912812 1.25805377 4.50802601 0 0 Z " fill="#031413" transform="translate(347,110)"/>
<path d="M0 0 C0 0.66 0 1.32 0 2 C-2.97 2.66 -5.94 3.32 -9 4 C-7.04565548 0.09131097 -4.13449517 0 0 0 Z " fill="#163C3B" transform="translate(914,210)"/>
<path d="M0 0 C1.32 0.33 2.64 0.66 4 1 C2.35 2.65 0.7 4.3 -1 6 C-1.66 5.67 -2.32 5.34 -3 5 C-2.01 3.35 -1.02 1.7 0 0 Z " fill="#0B2224" transform="translate(935,196)"/>
<path d="M0 0 C3.08089673 2.77280706 4.68775452 5.06326356 6 9 C5.01 8.34 4.02 7.68 3 7 C3 6.34 3 5.68 3 5 C2.01 4.67 1.02 4.34 0 4 C0 2.68 0 1.36 0 0 Z " fill="#031614" transform="translate(365,138)"/>
<path d="M0 0 C2.25245881 2.68841859 3.88213958 4.64641875 5 8 C4.01 8.33 3.02 8.66 2 9 C2 7.35 2 5.7 2 4 C1.34 4 0.68 4 0 4 C0 2.68 0 1.36 0 0 Z " fill="#061F1D" transform="translate(324,74)"/>
</svg>
